<svg width="17" height="53" viewBox="0 0 17 53" fill="none" xmlns="http://www.w3.org/2000/svg">
<g filter="url(#filter0_d_264_120)">
<path d="M12.3636 40.1193C12.3636 41.2405 11.9621 42.2027 11.1591 43.0057C10.3561 43.8087 9.39394 44.2102 8.27273 44.2102C7.15152 44.2102 6.18939 43.8087 5.38636 43.0057C4.58333 42.2027 4.18182 41.2405 4.18182 40.1193C4.18182 38.9981 4.58333 38.036 5.38636 37.233C6.18939 36.4299 7.15152 36.0284 8.27273 36.0284C9.01515 36.0284 9.69697 36.2178 10.3182 36.5966C10.9394 36.9602 11.4394 37.4527 11.8182 38.0739C12.1818 38.6799 12.3636 39.3617 12.3636 40.1193ZM12.3636 22.4943C12.3636 23.6155 11.9621 24.5777 11.1591 25.3807C10.3561 26.1837 9.39394 26.5852 8.27273 26.5852C7.15152 26.5852 6.18939 26.1837 5.38636 25.3807C4.58333 24.5777 4.18182 23.6155 4.18182 22.4943C4.18182 21.3731 4.58333 20.411 5.38636 19.608C6.18939 18.8049 7.15152 18.4034 8.27273 18.4034C9.01515 18.4034 9.69697 18.5928 10.3182 18.9716C10.9394 19.3352 11.4394 19.8277 11.8182 20.4489C12.1818 21.0549 12.3636 21.7367 12.3636 22.4943ZM12.3636 4.86932C12.3636 5.99053 11.9621 6.95265 11.1591 7.75568C10.3561 8.55871 9.39394 8.96023 8.27273 8.96023C7.15152 8.96023 6.18939 8.55871 5.38636 7.75568C4.58333 6.95265 4.18182 5.99053 4.18182 4.86932C4.18182 3.74811 4.58333 2.78598 5.38636 1.98295C6.18939 1.17992 7.15152 0.778409 8.27273 0.778409C9.01515 0.778409 9.69697 0.967803 10.3182 1.34659C10.9394 1.71023 11.4394 2.20265 11.8182 2.82386C12.1818 3.42992 12.3636 4.11174 12.3636 4.86932Z" fill="white"/>
</g>
<defs>
<filter id="filter0_d_264_120" x="0.181824" y="0.778381" width="16.1818" height="51.4318" filterUnits="userSpaceOnUse" color-interpolation-filters="sRGB">
<feFlood flood-opacity="0" result="BackgroundImageFix"/>
<feColorMatrix in="SourceAlpha" type="matrix" values="0 0 0 0 0 0 0 0 0 0 0 0 0 0 0 0 0 0 127 0" result="hardAlpha"/>
<feOffset dy="4"/>
<feGaussianBlur stdDeviation="2"/>
<feComposite in2="hardAlpha" operator="out"/>
<feColorMatrix type="matrix" values="0 0 0 0 0 0 0 0 0 0 0 0 0 0 0 0 0 0 0.25 0"/>
<feBlend mode="normal" in2="BackgroundImageFix" result="effect1_dropShadow_264_120"/>
<feBlend mode="normal" in="SourceGraphic" in2="effect1_dropShadow_264_120" result="shape"/>
</filter>
</defs>
</svg>
